{"title":"Drake - Hotline Bling [Music Video] 1080p [Sbyky]","uid":12688031,"size":74530561,"categoryP":"video","categoryS":"music_videos","magnet":"?xt=urn:btih:a8180cbf9efa409e672f0003895188889e4bb920&amp;dn=Drake+-+Hotline+Bling+%5BMusic+Video%5D+1080p+%5BSbyky%5D&amp;tr=udp%3A%2F%2Ftracker.leechers-paradise.org%3A6969&amp;tr=udp%3A%2F%2Fzer0day.ch%3A1337&amp;tr=udp%3A%2F%2Fopen.demonii.com%3A1337&amp;tr=udp%3A%2F%2Ftracker.coppersurfer.tk%3A6969&amp;tr=udp%3A%2F%2Fexodus.desync.com%3A6969","seeders":2,"leechers":0,"uploader":"Sbyky","files":1,"time":1446631508,"description":"General\r\nComplete name                            : Drake - Hotline Bling [Music Video] 1080p [Sbyky].mp4\r\nFormat                                   : MPEG-4\r\nFormat profile                           : Base Media\r\nCodec ID                                 : isom\r\nFile size                                : 71.1 MiB\r\nDuration                                 : 4mn 55s\r\nOverall bit rate mode                    : Variable\r\nOverall bit rate                         : 2 017 Kbps\r\nEncoded date                             : UTC 2015-10-27 06:19:12\r\nTagged date                              : UTC 2015-10-27 06:19:12\r\n\r\nVideo\r\nID                                       : 1\r\nFormat                                   : AVC\r\nFormat/Info                              : Advanced Video Codec\r\nFormat profile                           :   \r\nFormat settings, CABAC                   : Yes\r\nFormat settings, ReFrames                : 3 frames\r\nCodec ID                                 : avc1\r\nCodec ID/Info                            : Advanced Video Coding\r\nDuration                                 : 4mn 55s\r\nBit rate                                 : 1 888 Kbps\r\nWidth                                    : 1 920 pixels\r\nHeight                                   : 1 080 pixels\r\nDisplay aspect ratio                     : 16:9\r\nFrame rate mode                          : Variable\r\nFrame rate                               : 23.976 fps\r\nMinimum frame rate                       : 23.974 fps\r\nMaximum frame rate                       : 23.981 fps\r\nColor space                              : YUV\r\nChroma subsampling                       : 4:2:0\r\nBit depth                                : 8 bits\r\nScan type                                : Progressive\r\nBits/(Pixel*Frame)                       : 0.038\r\nStream size                              : 66.5 MiB (94%)\r\nEncoded date                             : UTC 2015-10-27 06:19:12\r\nTagged date                              : UTC 2015-10-27 06:19:12\r\n\r\nAudio\r\nID                                       : 2\r\nFormat                                   : AAC\r\nFormat/Info                              : Advanced Audio Codec\r\nFormat profile                           : LC\r\nCodec ID                                 : 40\r\nDuration                                 : 4mn 55s\r\nBit rate mode                            : Variable\r\nBit rate                                 : 126 Kbps\r\nChannel(s)                               : 2 channels\r\nChannel positions                        : Front: L R\r\nSampling rate                            : 44.1 KHz\r\nCompression mode                         : Lossy\r\nStream size                              : 4.43 MiB (6%)\r\nEncoded date                             : UTC 2015-10-27 06:18:06\r\nTagged date                              : UTC 2015-10-27 06:18:06\r\n\r\nShared By Sbyky\r\n[IMG]http://yuq.me/users/18/139/0aq32UMZvX.gif[/IMG]\r\n[IMG]http://yuq.me/users/18/139/bQg62viaEG.gif[/IMG]","torrent":{"xt":"urn:btih:a8180cbf9efa409e672f0003895188889e4bb920","amp;dn":"Drake+-+Hotline+Bling+%5BMusic+Video%5D+1080p+%5BSbyky%5D","amp;tr":["udp%3A%2F%2Ftracker.leechers-paradise.org%3A6969","udp%3A%2F%2Fzer0day.ch%3A1337","udp%3A%2F%2Fopen.demonii.com%3A1337","udp%3A%2F%2Ftracker.coppersurfer.tk%3A6969","udp%3A%2F%2Fexodus.desync.com%3A6969"],"infoHash":"a8180cbf9efa409e672f0003895188889e4bb920","infoHashBuffer":{"type":"Buffer","data":[168,24,12,191,158,250,64,158,103,47,0,3,137,81,136,136,158,75,185,32]},"announce":[],"urlList":[]}}